<svg width="16" height="19" viewBox="0 0 16 19" fill="none" xmlns="http://www.w3.org/2000/svg">
<path d="M7.94079 4.74054C7.31589 4.74054 6.70503 4.92584 6.18544 5.27302C5.66586 5.62019 5.26089 6.11364 5.02176 6.69097C4.78262 7.2683 4.72005 7.90358 4.84196 8.51647C4.96387 9.12936 5.26479 9.69234 5.70666 10.1342C6.14853 10.5761 6.7115 10.877 7.32439 10.9989C7.93728 11.1208 8.57256 11.0582 9.14989 10.8191C9.72722 10.58 10.2207 10.175 10.5678 9.65542C10.915 9.13584 11.1003 8.52498 11.1003 7.90008C11.1003 7.06212 10.7674 6.25847 10.1749 5.66595C9.58239 5.07342 8.77875 4.74054 7.94079 4.74054ZM7.94079 9.47985C7.62834 9.47985 7.32291 9.38719 7.06312 9.21361C6.80333 9.04002 6.60084 8.79329 6.48127 8.50463C6.3617 8.21596 6.33042 7.89833 6.39138 7.59188C6.45233 7.28543 6.60279 7.00395 6.82372 6.78301C7.04466 6.56208 7.32615 6.41162 7.63259 6.35066C7.93904 6.28971 8.25668 6.32099 8.54534 6.44056C8.83401 6.56013 9.08073 6.76261 9.25432 7.02241C9.42791 7.2822 9.52056 7.58763 9.52056 7.90008C9.52056 8.31906 9.35412 8.72088 9.05786 9.01714C8.76159 9.31341 8.35977 9.47985 7.94079 9.47985Z" fill="#D3D3D3"/>
<path d="M7.94229 18.9586C7.27716 18.962 6.6209 18.806 6.02845 18.5037C5.436 18.2014 4.92461 17.7615 4.5371 17.2209C1.52685 13.0685 0 9.94683 0 7.94211C0 5.83568 0.836774 3.81553 2.32624 2.32606C3.81571 0.836591 5.83586 -0.000183105 7.94229 -0.000183105C10.0487 -0.000183105 12.0689 0.836591 13.5583 2.32606C15.0478 3.81553 15.8846 5.83568 15.8846 7.94211C15.8846 9.94683 14.3577 13.0685 11.3475 17.2209C10.96 17.7615 10.4486 18.2014 9.85613 18.5037C9.26368 18.806 8.60742 18.962 7.94229 18.9586ZM7.94229 1.72413C6.29334 1.72602 4.71246 2.38189 3.54648 3.54788C2.3805 4.71386 1.72462 6.29474 1.72274 7.94369C1.72274 9.53135 3.21799 12.4674 5.93203 16.2106C6.16244 16.528 6.46471 16.7863 6.81411 16.9644C7.16351 17.1425 7.55011 17.2353 7.94229 17.2353C8.33447 17.2353 8.72107 17.1425 9.07047 16.9644C9.41987 16.7863 9.72214 16.528 9.95254 16.2106C12.6666 12.4674 14.1618 9.53135 14.1618 7.94369C14.16 6.29474 13.5041 4.71386 12.3381 3.54788C11.1721 2.38189 9.59124 1.72602 7.94229 1.72413Z" fill="#D3D3D3"/>
</svg>
