<svg width="23" height="23" viewBox="0 0 23 23" fill="none" xmlns="http://www.w3.org/2000/svg">
<path fillRule="evenodd" clipRule="evenodd" d="M18.2496 1.94849C16.811 1.94849 15.6448 3.12374 15.6448 4.57349C15.6448 4.95154 15.7241 5.31093 15.8668 5.63568C15.8773 5.653 15.8871 5.6708 15.8965 5.68907C15.913 5.72146 15.9274 5.7544 15.9396 5.78773C16.3745 6.62621 17.2457 7.19849 18.2496 7.19849C19.6882 7.19849 20.8545 6.02323 20.8545 4.57349C20.8545 3.12374 19.6882 1.94849 18.2496 1.94849ZM13.9082 4.57349C13.9082 4.95076 13.9556 5.31687 14.0447 5.66612L7.80135 8.90727C7.00761 7.8681 5.7609 7.19849 4.359 7.19849C1.9613 7.19849 0.0175781 9.15724 0.0175781 11.5735C0.0175781 13.9897 1.9613 15.9485 4.359 15.9485C5.76114 15.9485 7.00803 15.2786 7.80175 14.2392L14.0449 17.4802C13.9556 17.8296 13.9082 18.196 13.9082 18.5735C13.9082 20.9897 15.8519 22.9485 18.2496 22.9485C20.6473 22.9485 22.591 20.9897 22.591 18.5735C22.591 16.1572 20.6473 14.1985 18.2496 14.1985C16.8477 14.1985 15.6009 14.8682 14.8072 15.9074L8.56389 12.6663C8.65302 12.317 8.70042 11.9508 8.70042 11.5735C8.70042 11.1959 8.65296 10.8295 8.56372 10.4801L14.8068 7.23906C15.6005 8.27859 16.8474 8.94849 18.2496 8.94849C20.6473 8.94849 22.591 6.98973 22.591 4.57349C22.591 2.15724 20.6473 0.198486 18.2496 0.198486C15.8519 0.198486 13.9082 2.15724 13.9082 4.57349ZM6.74264 12.6337C6.88486 12.3095 6.96385 11.9508 6.96385 11.5735C6.96385 11.1951 6.88442 10.8355 6.74144 10.5105C6.73104 10.4932 6.72115 10.4754 6.71182 10.4572C6.69533 10.4249 6.68103 10.3921 6.66886 10.3589C6.23391 9.52062 5.36276 8.94849 4.359 8.94849C2.92038 8.94849 1.75415 10.1237 1.75415 11.5735C1.75415 13.0232 2.92038 14.1985 4.359 14.1985C5.36205 14.1985 6.23268 13.6272 6.66793 12.7898C6.68031 12.7558 6.69492 12.7221 6.71182 12.6891C6.72151 12.6701 6.7318 12.6517 6.74264 12.6337ZM15.8681 17.5085C15.878 17.4918 15.8875 17.4747 15.8965 17.4572C15.9126 17.4256 15.9266 17.3935 15.9387 17.3611C16.3732 16.5216 17.245 15.9485 18.2496 15.9485C19.6882 15.9485 20.8545 17.1237 20.8545 18.5735C20.8545 20.0232 19.6882 21.1985 18.2496 21.1985C16.811 21.1985 15.6448 20.0232 15.6448 18.5735C15.6448 18.1943 15.7245 17.834 15.8681 17.5085Z" fill="#94A3B8"/>
</svg>
