<svg width="81" height="82" viewBox="0 0 81 82" fill="none" xmlns="http://www.w3.org/2000/svg">
<path d="M3.375 18.85C3.375 14.9115 4.93955 11.1344 7.72446 8.34946C10.5094 5.56455 14.2865 4 18.225 4H62.775C66.7135 4 70.4906 5.56455 73.2755 8.34946C76.0604 11.1344 77.625 14.9115 77.625 18.85V63.4C77.625 67.3385 76.0604 71.1156 73.2755 73.9005C70.4906 76.6854 66.7135 78.25 62.775 78.25H18.225C14.2865 78.25 10.5094 76.6854 7.72446 73.9005C4.93955 71.1156 3.375 67.3385 3.375 63.4V18.85Z" stroke="#E5E9EE" strokeWidth="6.1875" strokeLinecap="round" strokeLinejoin="round"/>
<path d="M27.5117 37.4121C32.6376 37.4121 36.793 33.2568 36.793 28.1309C36.793 23.005 32.6376 18.8496 27.5117 18.8496C22.3858 18.8496 18.2305 23.005 18.2305 28.1309C18.2305 33.2568 22.3858 37.4121 27.5117 37.4121Z" stroke="#E5E9EE" strokeWidth="6.1875" strokeLinecap="round" strokeLinejoin="round"/>
<path d="M49.8832 43.4303L18.2305 78.2499H63.2742C67.0817 78.2499 70.7333 76.7373 73.4256 74.045C76.1179 71.3527 77.6305 67.7011 77.6305 63.8936V63.3999C77.6305 61.6698 76.9808 61.0053 75.8113 59.7245L60.85 43.408C60.1527 42.6474 59.3045 42.0405 58.3595 41.6259C57.4146 41.2114 56.3936 40.9984 55.3617 41.0005C54.3298 41.0026 53.3097 41.2198 52.3664 41.6381C51.4232 42.0565 50.5774 42.6669 49.8832 43.4303V43.4303Z" stroke="#E5E9EE" strokeWidth="6.1875" strokeLinecap="round" strokeLinejoin="round"/>
</svg>
