<svg width="17" height="15" viewBox="0 0 17 15" fill="none" xmlns="http://www.w3.org/2000/svg">
<path fill-rule="evenodd" clip-rule="evenodd" d="M13.1948 2.697C13.2281 2.75527 13.2865 2.79689 13.3615 2.79689C15.3615 2.79689 16.9948 4.42841 16.9948 6.42619V11.3707C16.9948 13.3685 15.3615 15 13.3615 15H3.96146C1.95313 15 0.328125 13.3685 0.328125 11.3707V6.42619C0.328125 4.42841 1.95313 2.79689 3.96146 2.79689C4.02813 2.79689 4.09479 2.7636 4.11979 2.697L4.16979 2.59711C4.19852 2.53665 4.228 2.47455 4.25794 2.4115C4.47112 1.96246 4.70698 1.46567 4.85313 1.1737C5.23646 0.424528 5.88646 0.00832408 6.69479 0H10.6198C11.4281 0.00832408 12.0865 0.424528 12.4698 1.1737C12.6011 1.43592 12.801 1.85833 12.9938 2.26545C13.0335 2.34942 13.073 2.43274 13.1115 2.51387L13.1948 2.697ZM12.5859 5.89345C12.5859 6.30965 12.9193 6.64261 13.3359 6.64261C13.7526 6.64261 14.0943 6.30965 14.0943 5.89345C14.0943 5.47724 13.7526 5.13596 13.3359 5.13596C12.9193 5.13596 12.5859 5.47724 12.5859 5.89345ZM7.22029 7.18368C7.61196 6.79245 8.12029 6.58435 8.66196 6.58435C9.20363 6.58435 9.71196 6.79245 10.0953 7.17536C10.4786 7.55827 10.687 8.06604 10.687 8.6071C10.6786 9.72253 9.77863 10.6299 8.66196 10.6299C8.12029 10.6299 7.61196 10.4218 7.22863 10.0388C6.84529 9.65594 6.63696 9.14817 6.63696 8.6071V8.59878C6.62863 8.07436 6.83696 7.56659 7.22029 7.18368ZM10.9702 10.9212C10.3785 11.5122 9.56187 11.8785 8.66187 11.8785C7.78687 11.8785 6.9702 11.5372 6.3452 10.9212C5.72853 10.2969 5.38687 9.48112 5.38687 8.60709C5.37853 7.74138 5.7202 6.92562 6.33687 6.30132C6.96187 5.67701 7.78687 5.33572 8.66187 5.33572C9.53687 5.33572 10.3619 5.67701 10.9785 6.29299C11.5952 6.9173 11.9369 7.74138 11.9369 8.60709C11.9285 9.51441 11.5619 10.3302 10.9702 10.9212Z" fill="#9E9E9E"/>
</svg>
