<svg width="24" height="23" viewBox="0 0 24 23" fill="none" xmlns="http://www.w3.org/2000/svg">
<path fill-rule="evenodd" clip-rule="evenodd" d="M19.1344 1.75C17.6958 1.75 16.5295 2.92525 16.5295 4.375C16.5295 4.75306 16.6088 5.11245 16.7516 5.4372C16.762 5.45451 16.7719 5.47231 16.7812 5.49058C16.7978 5.52297 16.8122 5.55592 16.8244 5.58924C17.2593 6.42773 18.1305 7 19.1344 7C20.573 7 21.7392 5.82475 21.7392 4.375C21.7392 2.92525 20.573 1.75 19.1344 1.75ZM14.793 4.375C14.793 4.75227 14.8404 5.11839 14.9295 5.46764L8.68611 8.70878C7.89237 7.66962 6.64567 7 5.24376 7C2.84606 7 0.902344 8.95875 0.902344 11.375C0.902344 13.7912 2.84606 15.75 5.24376 15.75C6.64591 15.75 7.8928 15.0802 8.68652 14.0407L14.9296 17.2817C14.8404 17.6312 14.793 17.9975 14.793 18.375C14.793 20.7912 16.7367 22.75 19.1344 22.75C21.5321 22.75 23.4758 20.7912 23.4758 18.375C23.4758 15.9588 21.5321 14 19.1344 14C17.7324 14 16.4857 14.6697 15.6919 15.7089L9.44866 12.4678C9.53778 12.1185 9.58518 11.7523 9.58518 11.375C9.58518 10.9974 9.53772 10.6311 9.44849 10.2816L15.6915 7.04057C16.4853 8.0801 17.7322 8.75 19.1344 8.75C21.5321 8.75 23.4758 6.79125 23.4758 4.375C23.4758 1.95875 21.5321 0 19.1344 0C16.7367 0 14.793 1.95875 14.793 4.375ZM7.62741 12.4352C7.76963 12.111 7.84862 11.7523 7.84862 11.375C7.84862 10.9966 7.76918 10.637 7.62621 10.312C7.6158 10.2947 7.60592 10.2769 7.59658 10.2587C7.5801 10.2264 7.5658 10.1936 7.55362 10.1604C7.11868 9.32213 6.24752 8.75 5.24376 8.75C3.80514 8.75 2.63891 9.92525 2.63891 11.375C2.63891 12.8247 3.80514 14 5.24376 14C6.24681 14 7.11745 13.4287 7.5527 12.5913C7.56507 12.5573 7.57968 12.5236 7.59658 12.4906C7.60628 12.4716 7.61656 12.4532 7.62741 12.4352ZM16.7528 17.31C16.7628 17.2933 16.7723 17.2762 16.7812 17.2587C16.7974 17.2271 16.8114 17.195 16.8234 17.1626C17.258 16.3231 18.1298 15.75 19.1344 15.75C20.573 15.75 21.7392 16.9253 21.7392 18.375C21.7392 19.8247 20.573 21 19.1344 21C17.6958 21 16.5295 19.8247 16.5295 18.375C16.5295 17.9959 16.6093 17.6355 16.7528 17.31Z" fill="#94A3B8"/>
</svg>
