<svg width="16" height="16" viewBox="0 0 16 16" fill="none" xmlns="http://www.w3.org/2000/svg">
<path d="M11.9623 10.6575L9.55511 8.2503L11.9623 5.8431C12.3227 5.4827 12.3227 4.89839 11.9623 4.53799C11.6019 4.1776 11.0176 4.1776 10.6572 4.53799L8.25 6.9452L5.8428 4.53799C5.4824 4.1776 4.89809 4.1776 4.53769 4.53799C4.17729 4.89839 4.17729 5.4827 4.53769 5.8431L6.94489 8.2503L4.53769 10.6575C4.17729 11.0179 4.17729 11.6022 4.53769 11.9626C4.89809 12.323 5.4824 12.323 5.8428 11.9626L8.25 9.55541L10.6572 11.9626C11.0176 12.323 11.6019 12.323 11.9623 11.9626C12.3227 11.6022 12.3227 11.0179 11.9623 10.6575Z" fill="#757575"/>
</svg>
