<svg width="26" height="28" viewBox="0 0 26 28" fill="none" xmlns="http://www.w3.org/2000/svg">
<path d="M3.25 23.3329L4.65833 18.7829C3.44115 16.8442 3.00083 14.5483 3.41924 12.3222C3.83765 10.0961 5.08632 8.09114 6.93308 6.68018C8.77985 5.26921 11.099 4.54824 13.4594 4.6513C15.8198 4.75437 18.0608 5.67446 19.7657 7.24051C21.4706 8.80656 22.5234 10.912 22.7284 13.1653C22.9334 15.4187 22.2765 17.6666 20.88 19.4912C19.4835 21.3157 17.4424 22.5927 15.1361 23.0848C12.8298 23.5768 10.4154 23.2504 8.34167 22.1662L3.25 23.3329Z" stroke="#64748B" strokeWidth="1.5" strokeLinecap="round" strokeLinejoin="round"/>
<path d="M13 14V14.0117" stroke="#64748B" strokeWidth="2" strokeLinecap="round" strokeLinejoin="round"/>
<path d="M8.66699 14V14.0117" stroke="#64748B" strokeWidth="2" strokeLinecap="round" strokeLinejoin="round"/>
<path d="M17.333 14V14.0117" stroke="#64748B" strokeWidth="2" strokeLinecap="round" strokeLinejoin="round"/>
</svg>
