<svg width="25" height="24" viewBox="0 0 25 24" fill="none" xmlns="http://www.w3.org/2000/svg">
<path d="M3.5 20L4.8 16.1C3.67644 14.4383 3.26999 12.4704 3.65622 10.5623C4.04244 8.65419 5.19506 6.93567 6.89977 5.72628C8.60447 4.51688 10.7453 3.8989 12.9241 3.98724C15.1029 4.07559 17.1715 4.86424 18.7453 6.20656C20.319 7.54889 21.2909 9.35354 21.4801 11.285C21.6693 13.2164 21.063 15.1432 19.7739 16.7071C18.4848 18.271 16.6007 19.3656 14.4718 19.7874C12.3429 20.2091 10.1142 19.9293 8.2 19L3.5 20Z" stroke="#94A3B8" strokeWidth="1.5" strokeLinecap="round" strokeLinejoin="round"/>
<path d="M12.5 12V12.01" stroke="#94A3B8" strokeWidth="2" strokeLinecap="round" strokeLinejoin="round"/>
<path d="M8.5 12V12.01" stroke="#94A3B8" strokeWidth="2" strokeLinecap="round" strokeLinejoin="round"/>
<path d="M16.5 12V12.01" stroke="#94A3B8" strokeWidth="2" strokeLinecap="round" strokeLinejoin="round"/>
</svg>
